<?xml version="1.0" standalone="no"?><!DOCTYPE svg PUBLIC "-//W3C//DTD SVG 1.1//EN" "http://www.w3.org/Graphics/SVG/1.1/DTD/svg11.dtd"><svg t="1701399367929" class="icon" viewBox="0 0 1024 1024" version="1.1" xmlns="http://www.w3.org/2000/svg" p-id="4433" xmlns:xlink="http://www.w3.org/1999/xlink" width="32" height="32"><path d="M760.053333 395.393333l-105.56-15.333333a21.333333 21.333333 0 0 1-16.06-11.666667L591.226667 272.733333a21.333333 21.333333 0 1 1 38.26-18.88l42.246666 85.593334 94.46 13.726666a21.333333 21.333333 0 1 1-6.14 42.22z m243.28 4.253334a21.333333 21.333333 0 0 0-17.226666-14.513334l-105.553334-15.333333a21.333333 21.333333 0 1 0-6.14 42.22l62.786667 9.126667-45.433333 44.28a21.333333 21.333333 0 0 0 29.793333 30.573333l76.386667-74.453333a21.333333 21.333333 0 0 0 5.386666-21.9z m-194.313333 146.446666L732.666667 620.546667a21.333333 21.333333 0 0 0-6.14 18.886666l18 105.126667a21.333333 21.333333 0 0 0 21 17.733333 21.066667 21.066667 0 0 0 3.633333-0.313333 21.333333 21.333333 0 0 0 17.42-24.666667l-16.14-94.073333L838.8 576.666667a21.333333 21.333333 0 1 0-29.78-30.553334z m-2.9 305.166667a21.333333 21.333333 0 1 0-42.046667 7.213333l10.72 62.526667-56.126666-29.52a21.333333 21.333333 0 0 0-19.853334 37.766667l94.413334 49.633333a21.333333 21.333333 0 0 0 30.953333-22.486667z m-189.78-13.56l-94.413333-49.64a21.28 21.28 0 0 0-9.926667-2.446667V112.206667l28.08 56.886666a21.333333 21.333333 0 0 0 38.26-18.88L531.133333 54.56a21.333333 21.333333 0 0 0-38.26 0L352.266667 339.446667 37.88 385.133333a21.333333 21.333333 0 0 0-11.826667 36.386667l227.5 221.753333-53.706666 313.12a21.333333 21.333333 0 0 0 30.953333 22.486667L512 831.046667l84.486667 44.42a21.333333 21.333333 0 1 0 19.853333-37.766667z" fill="#D17947" p-id="4434"></path></svg>