<?xml version="1.0" standalone="no"?><!DOCTYPE svg PUBLIC "-//W3C//DTD SVG 1.1//EN" "http://www.w3.org/Graphics/SVG/1.1/DTD/svg11.dtd"><svg t="1701399347375" class="icon" viewBox="0 0 1024 1024" version="1.1" xmlns="http://www.w3.org/2000/svg" p-id="4223" xmlns:xlink="http://www.w3.org/1999/xlink" width="32" height="32"><path d="M559.22 180.986667a21.333333 21.333333 0 0 1-19.14-11.893334L512 112.206667l-28.08 56.886666a21.333333 21.333333 0 0 1-38.26-18.88L492.866667 54.56a21.333333 21.333333 0 0 1 38.266666 0l47.206667 95.653333a21.333333 21.333333 0 0 1-19.12 30.773334zM784.233333 377.333333a21.333333 21.333333 0 0 0-18.04-24.18l-94.46-13.706666-42.246666-85.593334a21.333333 21.333333 0 1 0-38.26 18.88l47.206666 95.653334a21.333333 21.333333 0 0 0 16.06 11.666666l105.56 15.333334a21.3 21.3 0 0 0 24.18-18.053334z m137.333334 118.62l76.386666-74.453333a21.333333 21.333333 0 0 0-11.826666-36.386667l-105.553334-15.333333a21.333333 21.333333 0 1 0-6.14 42.22l62.786667 9.126667-45.433333 44.28a21.333333 21.333333 0 0 0 29.773333 30.593333z m-152.393334 266a21.333333 21.333333 0 0 0 17.42-24.666666l-16.14-94.073334L838.8 576.666667a21.333333 21.333333 0 1 0-29.78-30.553334L732.666667 620.546667a21.333333 21.333333 0 0 0-6.14 18.886666l18 105.126667a21.333333 21.333333 0 0 0 21 17.733333 21.066667 21.066667 0 0 0 3.64-0.293333z m46.5 215.28a21.333333 21.333333 0 0 0 8.486667-20.866666l-18-105.133334a21.333333 21.333333 0 1 0-42.046667 7.213334l10.72 62.526666-56.166666-29.493333a21.333333 21.333333 0 0 0-19.853334 37.766667l94.413334 49.633333a21.333333 21.333333 0 0 0 22.466666-1.62zM625.333333 866.506667a21.333333 21.333333 0 0 0-8.96-28.806667l-94.413333-49.64a21.333333 21.333333 0 0 0-19.853333 0l-94.413334 49.64a21.333333 21.333333 0 1 0 19.853334 37.766667L512 831.046667l84.486667 44.42a21.333333 21.333333 0 0 0 28.846666-8.96z m-394.533333 112.373333l94.413333-49.633333a21.333333 21.333333 0 0 0-19.88-37.766667l-56.153333 29.52 10.72-62.526667a21.333333 21.333333 0 1 0-42.046667-7.213333l-18.033333 105.133333a21.333333 21.333333 0 0 0 30.953333 22.486667z m48.666667-234.32l18.033333-105.126667a21.333333 21.333333 0 0 0-6.166667-18.886666L214.98 546.093333A21.333333 21.333333 0 0 0 185.2 576.666667l68.353333 66.626666L237.413333 737.333333a21.333333 21.333333 0 0 0 17.42 24.666667 21.066667 21.066667 0 0 0 3.633334 0.313333 21.333333 21.333333 0 0 0 21-17.753333zM132.606667 495.586667a21.333333 21.333333 0 0 0-0.386667-30.166667l-45.433333-44.28L149.573333 412a21.333333 21.333333 0 0 0-6.14-42.22l-105.553333 15.333333a21.333333 21.333333 0 0 0-11.826667 36.386667L102.433333 496a21.333333 21.333333 0 0 0 30.173334-0.386667z m131.333333-100.193334l105.56-15.333333a21.333333 21.333333 0 0 0 16.06-11.666667l47.213333-95.66a21.333333 21.333333 0 1 0-38.26-18.88L352.266667 339.446667l-94.453334 13.726666a21.333333 21.333333 0 1 0 6.133334 42.22z" fill="#D17947" p-id="4224"></path></svg>