<?xml version="1.0" encoding="utf-8"?>
<!-- Generator: Adobe Illustrator 25.2.1, SVG Export Plug-In . SVG Version: 6.00 Build 0)  -->
<svg version="1.1" id="图层_1" xmlns="http://www.w3.org/2000/svg" xmlns:xlink="http://www.w3.org/1999/xlink" x="0px" y="0px"
	 width="4920px" height="2080px" viewBox="0 0 4920 2080" style="enable-background:new 0 0 4920 2080;" xml:space="preserve">
<g>
	<path d="M923.2,1127.9c-22.1-13-39.3-31.1-51.6-54.2c-12.3-23.1-18.8-49.5-19.3-79.2c0.6-29.7,6.9-56.1,19.1-79
		c12.2-23.2,29.6-41.3,52.3-54.4c22.7-13,48.7-19.5,78.2-19.5c29.7,0,55.9,6.5,78.6,19.5c22.1,13,39.3,31.2,51.6,54.4
		c12.3,23.2,18.8,49.6,19.3,79c-0.6,29.5-6.9,55.6-19.1,78.6c-12.5,23.5-29.9,41.8-52.5,54.8c-22.5,13-48.5,19.5-78,19.5
		C972,1147.5,945.8,1141,923.2,1127.9z M1060.4,1095.2c16.4-9.9,29.1-23.6,38-41c8.9-17.4,13.4-37.3,13.4-59.7
		c0-22.1-4.4-41.9-13.2-59.5c-9.1-17.8-22-31.7-38.7-41.6c-16.7-9.9-36.1-14.9-58.2-14.9c-22.9,0-42.5,5.1-58.6,15.3
		c-16.4,9.9-29.1,23.6-38,41c-8.9,17.4-13.4,37.3-13.4,59.7c0,22.1,4.4,41.9,13.2,59.5c9.1,18.1,21.9,32.1,38.4,41.8
		c16.6,9.8,36,14.7,58.4,14.7C1024.7,1110.5,1044.2,1105.4,1060.4,1095.2z"/>
	<path d="M1213.1,1237.1c-3.8-4-5.7-8.6-5.7-14V943.2c0-5.4,1.9-10,5.7-13.8c3.8-3.8,8.4-5.7,13.8-5.7c5.4,0,10,1.9,14,5.7
		c4,3.8,5.9,8.4,5.9,13.8v10.2c20.4-21.2,44.5-31.9,72.2-31.9c18.4,0,35.1,4.4,50.1,13.2c16.4,9.1,29.4,22.4,38.9,39.9
		c9.5,17.6,14.2,37.5,14.2,59.9c0,23.2-4.8,43.2-14.4,59.9c-9.6,17-22.3,30.1-38,39.3c-15.7,9.2-32.6,13.8-50.8,13.8
		c-27.8,0-51.8-10.6-72.2-31.9v107.5c0,5.7-1.9,10.4-5.7,14.2c-3.8,3.8-8.6,5.7-14.2,5.7C1221.5,1243.1,1216.9,1241.1,1213.1,1237.1
		z M1364.3,1090.4c12.3-13.4,18.5-32.1,18.5-55.9s-6.2-42.4-18.5-55.9c-12.3-13.4-29.2-20.2-50.8-20.2c-12.5,0-24.4,2.8-35.9,8.5
		c-11.5,5.7-21.7,13.3-30.8,22.9v89.2c9.1,9.6,19.3,17.3,30.8,22.9c11.5,5.7,23.4,8.5,35.9,8.5
		C1335.1,1110.5,1352,1103.8,1364.3,1090.4z"/>
	<path d="M1491.3,1117.8c-19.4-19.8-29.1-47.6-29.1-83.3c0-19.3,3.7-37.8,11-55.6c7.6-17.8,19.3-31.9,34.8-42.1
		c15.6-10.2,34.3-15.3,56.1-15.3c21,0,39.2,4.8,54.8,14.4c14.7,9.6,26.2,22.6,34.4,38.9c8.2,16.3,12.3,34.3,12.3,54.2
		c0,5.4-1.8,10-5.5,13.8c-3.7,3.8-8.5,5.7-14.4,5.7h-143.6c2.5,20.1,10.1,35.5,22.7,46.1c12.6,10.6,29.7,15.9,51.2,15.9
		c11.3,0,21.5-1.1,30.4-3.2c8.9-2.1,17.9-5.5,27-10c2-1.1,4.5-1.7,7.6-1.7c4.5,0,8.6,1.6,12.1,4.9c3.5,3.3,5.3,7.3,5.3,12.1
		c0,6.5-3.8,11.9-11.5,16.1c-11.9,6.5-23.2,11.3-34,14.2c-10.8,3-24.2,4.5-40.4,4.5C1537.9,1147.5,1510.7,1137.6,1491.3,1117.8z
		 M1626.2,1010.7c-1.1-11.3-4.5-20.8-10.2-28.5c-6.2-9.1-14-15.9-23.2-20.4c-9.2-4.5-18.8-6.8-28.7-6.8c-9.1,0-18.6,2.1-28.5,6.4
		c-9.9,4.8-17.8,12-23.6,21.5c-5.8,9.5-9.1,20.6-10,33.3h118.9C1624.8,1016.2,1626.5,1014.4,1626.2,1010.7z"/>
	<path d="M1721.6,1139.6c-3.8-3.8-5.7-8.4-5.7-13.8V943.6c0-5.4,1.9-10,5.7-14c3.8-4,8.4-5.9,13.8-5.9c5.4,0,10,2,14,5.9
		c4,4,5.9,8.6,5.9,14v16.1c11.6-12.5,23.6-21.9,36.1-28.5c12.5-6.5,26.6-9.8,42.5-9.8c15.6,0,29.3,3.7,41.2,11
		c11.3,7.4,20,17.4,26.1,30.2c6.1,12.7,9.1,26.9,9.1,42.5v120.6c0,5.4-2,10-5.9,13.8c-4,3.8-8.6,5.7-14,5.7c-5.4,0-10-1.9-13.8-5.7
		c-3.8-3.8-5.7-8.4-5.7-13.8v-116.4c0-34.3-15.4-51.4-46.3-51.4c-13.6,0-25.8,3.4-36.7,10.2c-10.9,6.8-21.7,16.9-32.5,30.2v127.4
		c0,5.4-2,10-5.9,13.8c-4,3.8-8.6,5.7-14,5.7C1730,1145.4,1725.4,1143.5,1721.6,1139.6z"/>
	<path d="M1982,1139.6c-3.8-3.8-5.7-8.4-5.7-13.8V863.7c0-5.4,1.9-10,5.7-14c3.8-4,8.4-5.9,13.8-5.9c5.4,0,10,2,14,5.9
		c4,4,5.9,8.6,5.9,14v112.6h160.2V863.7c0-5.4,1.9-10,5.7-14c3.8-4,8.4-5.9,13.8-5.9c5.4,0,10,2,14,5.9c4,4,5.9,8.6,5.9,14v262.1
		c0,5.4-2,10-5.9,13.8c-4,3.8-8.6,5.7-14,5.7c-5.4,0-10-1.9-13.8-5.7c-3.8-3.8-5.7-8.4-5.7-13.8v-112.6h-160.2v112.6
		c0,5.4-2,10-5.9,13.8c-4,3.8-8.6,5.7-14,5.7C1990.4,1145.4,1985.8,1143.5,1982,1139.6z"/>
	<path d="M2310.6,1139.8c-11-5.1-19.7-12.6-25.9-22.5c-6.2-9.9-9.3-21.2-9.3-34c0-22.1,8.6-39.1,25.7-51.2
		c17.1-12,41.3-18.1,72.4-18.1h51v-3c0-18.1-4.5-31.4-13.4-39.7c-8.9-8.4-23.3-12.5-43.1-12.5c-10.2,0-19.4,0.8-27.6,2.3
		c-8.2,1.6-17.8,4.2-28.9,7.9l-5.5,0.8c-4.2,0-8-1.6-11.3-4.9c-3.3-3.3-4.9-7.1-4.9-11.7c0-7.9,3.8-13.4,11.5-16.6
		c23.8-10.2,48.3-15.3,73.5-15.3c19.5,0,36.2,4,50.1,11.9c13,7.6,22.8,17.8,29.3,30.4c6.5,12.6,9.8,26.5,9.8,41.8v120.2
		c0,5.4-2,10-5.9,13.8c-4,3.8-8.6,5.7-14,5.7c-5.4,0-10-1.9-13.8-5.7c-3.8-3.8-5.7-8.4-5.7-13.8v-10.2
		c-20.4,21.2-46.9,31.9-79.4,31.9C2332.8,1147.5,2321.3,1144.9,2310.6,1139.8z M2394.9,1103.9c11.5-5.8,21.3-13.4,29.5-22.7V1046
		h-45.9c-42.5,0-63.7,11-63.7,33.1c0,22.4,14.9,33.6,44.6,33.6C2371.6,1112.7,2383.4,1109.8,2394.9,1103.9z"/>
	<path d="M2533.8,1139.6c-3.8-3.8-5.7-8.4-5.7-13.8V943.6c0-5.4,1.9-10,5.7-14c3.8-4,8.4-5.9,13.8-5.9c5.4,0,10,2,14,5.9
		c4,4,5.9,8.6,5.9,14v17c19.5-26.1,41.6-39.1,66.3-39.1h2.1c5.4,0,9.9,1.9,13.6,5.7c3.7,3.8,5.5,8.4,5.5,13.8
		c0,5.4-1.9,9.8-5.7,13.4c-3.8,3.5-8.6,5.3-14.2,5.3h-2.1c-13.3,0-25.6,3.2-36.7,9.6c-11.2,6.4-20.7,15.5-28.7,27.4v129.1
		c0,5.4-2,10-5.9,13.8c-4,3.8-8.6,5.7-14,5.7C2542.2,1145.4,2537.6,1143.5,2533.8,1139.6z"/>
	<path d="M3008.7,963.5c5.2,12.5,7.9,25.8,7.9,39.9v122.3c0,5.4-2,10-5.9,13.8c-4,3.8-8.6,5.7-14,5.7c-5.4,0-10-1.9-13.8-5.7
		c-3.8-3.8-5.7-8.4-5.7-13.8v-114.7c0-19-3.3-32.6-10-40.8c-6.7-8.2-17.6-12.3-32.9-12.3c-13.6,0-25.1,3.5-34.4,10.4
		c-9.3,6.9-18.1,16.9-26.3,29.9v127.4c0,5.4-2,10-5.9,13.8c-4,3.8-8.6,5.7-14,5.7c-5.4,0-10-1.9-13.8-5.7c-3.8-3.8-5.7-8.4-5.7-13.8
		v-114.7c0-19-3.3-32.6-10-40.8c-6.7-8.2-17.6-12.3-32.9-12.3c-13.6,0-25.1,3.5-34.4,10.4c-9.3,6.9-18.1,16.9-26.3,29.9v127.4
		c0,5.4-2,10-5.9,13.8c-4,3.8-8.6,5.7-14,5.7c-5.4,0-10-1.9-13.8-5.7c-3.8-3.8-5.7-8.4-5.7-13.8V943.6c0-5.4,1.9-10,5.7-14
		c3.8-4,8.4-5.9,13.8-5.9c5.4,0,10,2,14,5.9c4,4,5.9,8.6,5.9,14v15.7c8.8-11.9,18.8-21.2,30.2-27.8c11.3-6.7,25.2-10,41.6-10
		c15.3,0,28.7,4,40.1,12.1c11.5,8.1,19.8,18.5,24.9,31.2c17.6-28.9,43.6-43.3,78.2-43.3c16.4,0,29.9,4,40.4,11.9
		C2995.8,941,3003.5,951.1,3008.7,963.5z"/>
	<path d="M3119.4,1133.5c-16.4-9.6-29.2-23.1-38.2-40.4c-9.1-17.3-13.6-36.8-13.6-58.6c0-22.1,4.5-41.8,13.6-59
		c9.1-17.3,21.9-30.6,38.4-39.9c16.6-9.3,35.6-14,57.1-14c21.5,0,40.5,4.7,56.9,14c16.7,9.6,29.6,23,38.7,40.1
		c9.1,17.1,13.6,36.7,13.6,58.8s-4.5,41.6-13.6,58.6c-9.3,17.6-22.3,31-38.9,40.4c-16.6,9.3-35.5,14-56.7,14
		C3154.9,1147.5,3135.8,1142.8,3119.4,1133.5z M3210.3,1103.3c11-5.7,19.8-14.4,26.3-26.1c6.5-11.7,9.8-26.1,9.8-43.1
		c0-17.8-3.4-32.3-10.2-43.3c-6.2-10.8-14.5-19-24.9-24.6c-10.3-5.7-21.9-8.5-34.6-8.5c-11.6,0-22.8,2.5-33.6,7.6
		c-11,5.7-19.8,14.3-26.3,25.9c-6.5,11.6-9.8,25.9-9.8,42.9c0,18.1,3.4,32.7,10.2,43.8c6.2,11,14.5,19.4,24.9,25.1
		c10.3,5.7,21.9,8.5,34.6,8.5C3188.4,1111.4,3199.5,1108.7,3210.3,1103.3z"/>
	<path d="M3344.8,1139.6c-3.8-3.8-5.7-8.4-5.7-13.8V943.6c0-5.4,1.9-10,5.7-14c3.8-4,8.4-5.9,13.8-5.9c5.4,0,10,2,14,5.9
		c4,4,5.9,8.6,5.9,14v16.1c11.6-12.5,23.6-21.9,36.1-28.5c12.5-6.5,26.6-9.8,42.5-9.8c15.6,0,29.3,3.7,41.2,11
		c11.3,7.4,20,17.4,26.1,30.2c6.1,12.7,9.1,26.9,9.1,42.5v120.6c0,5.4-2,10-5.9,13.8c-4,3.8-8.6,5.7-14,5.7c-5.4,0-10-1.9-13.8-5.7
		c-3.8-3.8-5.7-8.4-5.7-13.8v-116.4c0-34.3-15.4-51.4-46.3-51.4c-13.6,0-25.8,3.4-36.7,10.2c-10.9,6.8-21.7,16.9-32.5,30.2v127.4
		c0,5.4-2,10-5.9,13.8c-4,3.8-8.6,5.7-14,5.7C3353.2,1145.4,3348.6,1143.5,3344.8,1139.6z"/>
	<path d="M3633.4,1237.3c-3.7-3.8-5.5-8.3-5.5-13.4c0-2.3,0.4-4.5,1.3-6.8l27.6-70.9l-79.9-194.6c-1.1-2.8-1.7-5.5-1.7-8.1
		c0-5.4,1.9-10,5.7-14c3.8-4,8.4-5.9,13.8-5.9c4,0,7.6,1.1,11,3.4c3.4,2.3,5.8,5.2,7.2,8.9l65,161l66.3-160.2
		c4-8.8,10-13.2,18.3-13.2c5.4,0,10,2,13.8,5.9c3.8,4,5.7,8.6,5.7,14c0,2.5-0.4,5-1.3,7.2l-116,278.7c-4,9.1-10.1,13.6-18.3,13.6
		C3641.5,1243.1,3637.1,1241.2,3633.4,1237.3z"/>
</g>
<g>
	<path d="M3885.5,949.9c-1.2-1.2-1.8-2.7-1.8-4.4v-77.1h-27.4c-1.6,0-3-0.6-4.1-1.7c-1.1-1.1-1.7-2.5-1.7-4.1s0.6-3,1.7-4.2
		c1.1-1.2,2.5-1.8,4.1-1.8h67.1c1.6,0,3,0.6,4.2,1.8c1.2,1.2,1.8,2.6,1.8,4.2s-0.6,3-1.8,4.1c-1.2,1.1-2.6,1.7-4.2,1.7h-27.2v77.1
		c0,1.7-0.6,3.2-1.9,4.4c-1.3,1.2-2.7,1.8-4.4,1.8C3888.2,951.7,3886.7,951.1,3885.5,949.9z"/>
	<path d="M3945.7,949.9c-1.2-1.2-1.8-2.7-1.8-4.4v-80.5c0-2.4,0.9-4.5,2.6-6.3c1.8-1.8,3.8-2.7,6.3-2.7h4.4c1.7,0,3.3,0.5,4.9,1.5
		c1.5,1,2.7,2.4,3.5,4.2l29.4,73.3c0.3,0.6,0.6,0.9,1.1,0.9c0.4,0,0.8-0.3,1.1-0.9l29.4-73.3c0.8-1.8,2-3.2,3.5-4.2
		c1.5-1,3.1-1.5,4.9-1.5h4.4c2.4,0,4.5,0.9,6.3,2.7c1.8,1.8,2.6,3.9,2.6,6.3v80.5c0,1.7-0.6,3.2-1.8,4.4s-2.7,1.8-4.4,1.8
		c-1.7,0-3.2-0.6-4.4-1.8c-1.3-1.2-1.9-2.7-1.9-4.4v-71.2c0-0.8-0.3-1.2-0.8-1.2c-0.4,0-0.7,0.3-0.9,0.8l-29.1,72
		c-0.7,1.7-1.9,3.1-3.5,4.2s-3.4,1.6-5.3,1.6s-3.6-0.5-5.3-1.6s-2.8-2.5-3.5-4.2l-29.1-72c-0.3-0.5-0.6-0.8-0.9-0.8
		c-0.5,0-0.8,0.4-0.8,1.2v71.2c0,1.7-0.6,3.2-1.9,4.4c-1.3,1.2-2.7,1.8-4.4,1.8C3948.4,951.7,3946.9,951.1,3945.7,949.9z"/>
</g>
</svg>
