<?xml version="1.0" standalone="no"?>
<!DOCTYPE svg PUBLIC "-//W3C//DTD SVG 20010904//EN"
 "http://www.w3.org/TR/2001/REC-SVG-20010904/DTD/svg10.dtd">
<svg version="1.0" xmlns="http://www.w3.org/2000/svg"
 width="512.000000pt" height="512.000000pt" viewBox="0 0 512.000000 512.000000"
 preserveAspectRatio="xMidYMid meet">
<metadata>
Created by potrace 1.16, written by Peter Selinger 2001-2019
</metadata>
<g transform="translate(0.000000,512.000000) scale(0.100000,-0.100000)"
fill="#000000" stroke="none">
<path d="M2240 5105 c-389 -48 -766 -188 -1091 -404 -504 -335 -871 -825
-1043 -1395 -41 -132 -81 -333 -96 -468 -13 -125 -13 -431 0 -556 108 -1014
825 -1880 1804 -2176 132 -41 333 -81 468 -96 125 -13 431 -13 556 0 592 63
1141 332 1563 766 289 299 494 645 613 1038 74 243 106 468 106 746 0 209 -10
324 -46 505 -181 920 -867 1676 -1768 1949 -132 41 -333 81 -468 96 -131 14
-469 11 -598 -5z m-631 -1305 c-6 -16 -9 -56 -7 -89 l3 -58 -110 -5 c-64 -3
-125 -12 -145 -20 -156 -66 -199 -273 -83 -393 63 -65 97 -75 271 -75 l152 0
0 -27 c1 -52 30 -166 58 -227 16 -34 52 -90 80 -125 29 -35 52 -70 52 -78 0
-70 -292 -498 -482 -706 l-53 -59 -179 26 c-99 15 -185 31 -191 36 -32 27 -77
195 -99 375 -25 206 -59 264 -221 379 -19 13 -18 16 15 117 138 422 453 761
870 935 75 31 81 31 69 -6z m636 -398 c0 -70 3 -84 30 -128 36 -58 106 -104
167 -111 l43 -5 -3 -60 c-5 -77 18 -138 69 -189 l39 -39 -35 -38 c-59 -66
-155 -108 -380 -167 -55 -15 -107 -28 -116 -31 -14 -4 -16 2 -12 40 9 74 -4
111 -68 195 -71 95 -96 148 -107 229 l-8 60 66 4 c87 5 151 42 195 112 27 44
30 58 30 128 l0 78 45 0 45 0 0 -78z m1233 -349 c81 -174 125 -335 142 -528
13 -142 15 -132 -23 -127 -83 10 -227 -40 -282 -98 -25 -26 -31 -28 -84 -23
-45 4 -70 0 -121 -19 -51 -19 -82 -24 -143 -23 l-77 2 -55 52 c-30 29 -81 64
-112 79 -52 24 -70 27 -163 27 -93 0 -111 -3 -163 -27 -31 -15 -82 -51 -113
-80 -56 -53 -57 -53 -113 -50 -123 7 -219 -73 -246 -205 l-7 -33 826 0 c454 0
826 -4 826 -8 0 -19 -53 -163 -87 -234 l-36 -78 -810 0 -809 0 -61 53 c-58 50
-115 91 -180 131 l-27 17 73 97 c40 53 121 168 181 255 129 190 116 181 417
267 258 72 360 119 439 199 30 31 64 75 75 98 l20 42 176 3 176 3 49 30 c30
19 60 49 79 79 27 44 30 58 30 128 l0 78 76 0 76 0 51 -107z"/>
</g>
</svg>
